Coordinates
version=1
nRows=19
nColumns=24
inDegrees=yes

Units are S.I. units (second, meters, Newtons, ...)
Angles are in degrees.

endheader
time	pelvis_tilt	pelvis_list	pelvis_rotation	pelvis_tx	pelvis_ty	pelvis_tz	hip_flexion_r	hip_adduction_r	hip_rotation_r	knee_angle_r	ankle_angle_r	subtalar_angle_r	mtp_angle_r	hip_flexion_l	hip_adduction_l	hip_rotation_l	knee_angle_l	ankle_angle_l	subtalar_angle_l	mtp_angle_l	lumbar_extension	lumbar_bending	lumbar_rotation
      3.22000000	     -0.41084032	     -6.33847540	     -0.64178766	     -1.16792628	      0.93522156	      0.25258777	     12.70820689	     13.67473802	      8.33467287	    -25.26104958	     16.79617424	    -12.12707830	      0.00000000	     23.98398247	     -6.98593347	     -3.49757833	    -70.93062018	     15.97703239	     -8.39416344	      0.00000000	    -12.24946996	      6.60890951	     -8.87060290
      3.22500000	     -0.38220232	     -6.05289558	     -0.84090217	     -1.16097983	      0.93649012	      0.25289075	     11.89646721	     13.42202893	      8.82095385	    -24.77667050	     16.87960952	    -12.31008997	      0.00000000	     24.50373931	     -6.68254307	     -3.63709045	    -70.03917458	     16.60490953	     -7.72011470	      0.00000000	    -12.29299171	      6.22984702	     -8.63718121
      3.23000000	     -0.36218841	     -5.76569974	     -1.04843292	     -1.15403702	      0.93767678	      0.25319962	     11.09973466	     13.15999984	      9.30272108	    -24.29338304	     16.96356648	    -12.49814176	      0.00000000	     25.00324375	     -6.37964354	     -3.79377972	    -69.05911543	     17.14947582	     -7.15435619	      0.00000000	    -12.32506940	      5.84731066	     -8.39814684
      3.23500000	     -0.35242880	     -5.48242283	     -1.26138540	     -1.14710058	      0.93876734	      0.25349976	     10.32337157	     12.89216671	      9.76731682	    -23.81503843	     17.05311728	    -12.67868936	      0.00000000	     25.48637728	     -6.08115045	     -3.96042084	    -67.99645044	     17.61910338	     -6.68582051	      0.00000000	    -12.34446143	      5.47063050	     -8.15075542
      3.24000000	     -0.35449250	     -5.20597176	     -1.48466487	     -1.14018445	      0.93974374	      0.25378575	      9.57846758	     12.62258701	     10.21127679	    -23.36046943	     17.15036740	    -12.84665695	      0.00000000	     25.94995309	     -5.78964026	     -4.13953625	    -66.84676269	     18.05014626	     -6.32362246	      0.00000000	    -12.35091270	      5.10484002	     -7.89469517
      3.24500000	     -0.36259279	     -4.93902489	     -1.71262298	     -1.13327216	      0.94062391	      0.25407697	      8.85011116	     12.35523768	     10.63776061	    -22.91207056	     17.24565375	    -13.01025400	      0.00000000	     26.39109312	     -5.51026615	     -4.32269069	    -65.61736779	     18.41594965	     -6.04598058	      0.00000000	    -12.34860038	      4.74981251	     -7.63186727
      3.25000000	     -0.38078640	     -4.68485866	     -1.94011241	     -1.12636452	      0.94138588	      0.25434237	      8.14880887	     12.09233243	     11.03986060	    -22.48284935	     17.34289503	    -13.16445558	      0.00000000	     26.81533335	     -5.24232408	     -4.50295169	    -64.31361272	     18.73554053	     -5.84353620	      0.00000000	    -12.33540494	      4.41154536	     -7.36770452
      3.25500000	     -0.38561241	     -4.44263050	     -2.18953017	     -1.11947846	      0.94208080	      0.25458204	      7.44765874	     11.83807422	     11.46997467	    -22.07612731	     17.42498325	    -13.33621073	      0.00000000	     27.18472809	     -4.98113523	     -4.67728510	    -62.92066925	     19.01179720	     -5.71420341	      0.00000000	    -12.34145391	      4.09976460	     -7.05442509
      3.26000000	     -0.41107962	     -4.21193805	     -2.42930454	     -1.11256215	      0.94262030	      0.25484292	      6.78240668	     11.59133007	     11.85060036	    -21.68448513	     17.53706458	    -13.50778241	      0.00000000	     27.55143242	     -4.74209509	     -4.85762082	    -61.46363366	     19.24999898	     -5.63704407	      0.00000000	    -12.31202378	      3.79492741	     -6.78220387
      3.26500000	     -0.42202153	     -4.00168333	     -2.67356401	     -1.10569560	      0.94307515	      0.25505889	      6.12116172	     11.36246841	     12.25622312	    -21.32273133	     17.62446070	    -13.69791100	      0.00000000	     27.87196524	     -4.51323731	     -5.00980201	    -59.93281967	     19.46920435	     -5.60335111	      0.00000000	    -12.31812508	      3.51988138	     -6.45619797
      3.27000000	     -0.44895920	     -3.79983875	     -2.91174831	     -1.09879836	      0.94339631	      0.25526871	      5.49182468	     11.13999292	     12.63711336	    -20.98377164	     17.73089514	    -13.89608740	      0.00000000	     28.17854134	     -4.29553809	     -5.15463989	    -58.33256676	     19.65255347	     -5.60080460	      0.00000000	    -12.29433587	      3.25643525	     -6.15879982
      3.27500000	     -0.46055320	     -3.61938831	     -3.15437734	     -1.09191140	      0.94361671	      0.25550158	      4.86056882	     10.94264654	     13.02099751	    -20.66796107	     17.83194659	    -14.14003142	      0.00000000	     28.43715694	     -4.10622598	     -5.28994838	    -56.66789631	     19.83578008	     -5.60363715	      0.00000000	    -12.29372906	      3.01317188	     -5.84347476
      3.28000000	     -0.51874086	     -3.43943258	     -3.37708560	     -1.08499866	      0.94367578	      0.25567322	      4.29788140	     10.73967347	     13.35814614	    -20.38079729	     17.95965612	    -14.34388123	      0.00000000	     28.71862741	     -3.90980925	     -5.40252971	    -54.93635278	     19.96402541	     -5.63675305	      0.00000000	    -12.22886737	      2.78671011	     -5.59757151
      3.28500000	     -0.52364745	     -3.29335135	     -3.62775106	     -1.07816150	      0.94370603	      0.25585183	      3.69171722	     10.57541919	     13.77417487	    -20.12183675	     18.05334289	    -14.60507332	      0.00000000	     28.90734484	     -3.74854254	     -5.48536114	    -53.13887494	     20.09059414	     -5.66474509	      0.00000000	    -12.25372923	      2.59110163	     -5.22975373
      3.29000000	     -0.53495925	     -3.15740111	     -3.85202585	     -1.07128147	      0.94360783	      0.25602440	      3.10163993	     10.42353481	     14.14456606	    -19.87534911	     18.14859730	    -14.92279713	      0.00000000	     29.07289201	     -3.60046555	     -5.55221231	    -51.28316298	     20.23140025	     -5.64161763	      0.00000000	    -12.26290186	      2.41040095	     -4.92499033
      3.29500000	     -0.61806464	     -3.02285733	     -4.05444533	     -1.06440208	      0.94331764	      0.25611487	      2.61469764	     10.26678967	     14.43826176	    -19.66907955	     18.29712123	    -15.14395026	      0.00000000	     29.29154477	     -3.43952354	     -5.57332726	    -49.36671770	     20.30402459	     -5.65840564	      0.00000000	    -12.18366057	      2.25027264	     -4.69603461
      3.30000000	     -0.65952306	     -2.90507978	     -4.27378935	     -1.05752998	      0.94299365	      0.25623025	      2.08908621	     10.13076482	     14.77926673	    -19.48180684	     18.43525768	    -15.41024391	      0.00000000	     29.42350785	     -3.30542502	     -5.58621223	    -47.38382719	     20.37258788	     -5.63748284	      0.00000000	    -12.16253086	      2.09895613	     -4.39023353
      3.30500000	     -0.66684610	     -2.81987287	     -4.49537939	     -1.05072686	      0.94262313	      0.25632832	      1.53909821	     10.02946135	     15.14506868	    -19.31643513	     18.54705994	    -15.72082234	      0.00000000	     29.48961358	     -3.19854182	     -5.54604197	    -45.34914290	     20.42999811	     -5.58285664	      0.00000000	    -12.20673403	      1.98621597	     -4.05206621
      3.31000000	     -0.71195871	     -2.73772898	     -4.68549057	     -1.04389038	      0.94210615	      0.25638377	      1.04139314	      9.92942549	     15.43633007	    -19.16785311	     18.68563069	    -16.00701822	      0.00000000	     29.56780212	     -3.09152223	     -5.47528906	    -43.26263102	     20.46356176	     -5.49336677	      0.00000000	    -12.19903609	      1.88583992	     -3.78242995
